<?xml version="1.0" encoding="UTF-8" standalone="no"?>
<svg
   id="Camada_1"
   version="1.1"
   viewBox="0 0 1023.6 537.7"
   sodipodi:docname="logo.svg"
   inkscape:version="1.4.2 (ebf0e940d0, 2025-05-08)"
   xmlns:inkscape="http://www.inkscape.org/namespaces/inkscape"
   xmlns:sodipodi="http://sodipodi.sourceforge.net/DTD/sodipodi-0.dtd"
   xmlns="http://www.w3.org/2000/svg"
   xmlns:svg="http://www.w3.org/2000/svg">
  <sodipodi:namedview
     id="namedview38"
     pagecolor="#ffffff"
     bordercolor="#000000"
     borderopacity="0.25"
     inkscape:showpageshadow="2"
     inkscape:pageopacity="0.0"
     inkscape:pagecheckerboard="0"
     inkscape:deskcolor="#d1d1d1"
     inkscape:zoom="1.1530593"
     inkscape:cx="512.1159"
     inkscape:cy="323.48727"
     inkscape:window-width="1600"
     inkscape:window-height="829"
     inkscape:window-x="0"
     inkscape:window-y="0"
     inkscape:window-maximized="1"
     inkscape:current-layer="g38" />
  <!-- Generator: Adobe Illustrator 29.1.0, SVG Export Plug-In . SVG Version: 2.1.0 Build 142)  -->
  <defs
     id="defs1">
    <style
       id="style1">
      .st0 {
        fill: #1d1d1b;
      }

      .st0, .st1, .st2, .st3, .st4, .st5 {
        stroke-miterlimit: 10;
      }

      .st0, .st1, .st2, .st3, .st5 {
        stroke: #000;
      }

      .st1 {
        fill: #fff;
      }

      .st2 {
        fill: #1d9ed9;
      }

      .st3, .st4 {
        fill: none;
      }

      .st4 {
        stroke: #1d9ed9;
      }
    </style>
  </defs>
  <path
     d="M306.7,301.4c-4.7,0-9-1.4-13.1-4-4.1-2.7-8-6.3-11.9-10.7h-1.6c-4.1,0-8-.5-11.7-1.4-3.7-.9-6.7-2.3-9.1-4-2.4-1.7-3.7-3.7-4-6-6.5-6.7-9.8-14.9-9.8-24.6s1.6-13,4.8-18.5,7.6-9.8,13.3-13c5.7-3.1,12-4.7,19.1-4.7s13.4,1.6,19.1,4.7c5.6,3.1,10.1,7.4,13.3,13s4.8,11.9,4.8,19-2.6,16.8-8,22.6c-5.3,5.8-12.1,9.6-20.3,11.6,2.6,2.5,5.2,4.5,7.7,5.8,2.5,1.4,5.2,2.1,8.1,2.1,4.2,0,8.1-1.7,11.6-5.1l4.4,5.9c-5,4.9-10.6,7.4-16.8,7.4ZM259.3,236.8c-2.3,4.1-3.5,8.7-3.5,13.9s1.5,11.2,4.6,15.6c1.9-1.1,3.8-1.7,5.7-1.7,3.1,0,6.1,1.1,8.8,3.4,2.7,2.2,6,5.6,9.9,10h0c7-1.1,12.9-3.9,17.7-8.3,4.8-4.4,7.2-10.6,7.2-18.5s-1.2-10.2-3.5-14.3c-2.3-4.1-5.5-7.3-9.7-9.6-4.1-2.3-8.7-3.4-13.7-3.4s-9.8,1.1-13.9,3.5c-4.1,2.3-7.3,5.5-9.7,9.6ZM274.7,278.4c-3.5-4.1-6.1-6.1-8-6.1s-1.1.2-1.4.5c-.3.4-.5.8-.5,1.2,0,1.1.9,2,2.8,2.8,1.9.8,4.2,1.3,7.1,1.6Z"
     id="path1" />
  <path
     d="M391.8,283.4c-3.6,2.2-7.5,3.2-11.7,3.2s-6.4-.7-8.9-2.2c-2.5-1.5-4.3-3.6-5.3-6.5-1.9,2.8-4.6,5-7.9,6.5s-7.2,2.2-11.5,2.2c-6.3,0-11.4-1.6-15.5-4.9-4.1-3.3-6.1-8.3-6.1-15.1v-34h9.6v30.1c0,4.2.9,7.7,2.8,10.6,1.9,2.9,5.7,4.3,11.5,4.3s7-.7,9.6-2.2c2.6-1.4,4.8-3.6,6.6-6.6v-36.3h9.6v37.3c0,2.6.6,4.6,1.9,6,1.2,1.4,2.9,2,5,2s4.3-.7,6.5-2.2c2.2-1.5,4.2-3.6,6.1-6.3l6.3,5.1c-2.1,3.7-4.9,6.7-8.6,8.9Z"
     id="path2" />
  <path
     d="M527.9,283.4c-3.7,2.2-7.6,3.2-11.7,3.2s-8-1.2-10.9-3.7c-2.8-2.4-4.3-6-4.3-10.7v-17.9c0-4.5-1.3-7.9-4-10.3-2.7-2.4-6.1-3.6-10.2-3.6s-6.7.9-9.7,2.7c-3,1.8-5.2,4.3-6.8,7.7v35h-9.6v-53.3h9.2v8.1c2.3-2.9,5.2-5.1,8.7-6.6,3.5-1.5,7.2-2.3,11.1-2.3s7.4.8,10.5,2.2c3.2,1.5,5.7,3.8,7.6,6.8s2.8,6.7,2.8,11v18.2c0,2.6.6,4.6,1.9,6,1.2,1.4,2.9,2,5,2s4.4-.7,6.6-2.2c2.2-1.5,4.2-3.6,6-6.3l6.4,5.1c-2.1,3.7-4.9,6.7-8.6,8.9Z"
     id="path3" />
  <path
     d="M559.7,283.5c-3.7,2.1-7.7,3.2-12.1,3.2s-9.6-1.5-13.1-4.3c-3.5-2.9-5.3-7.3-5.3-13.3v-28.1h-6.4v-8.3h6.4v-11.3h9.6v11.3h10.9v8.3h-10.9v26.7c0,3.5,1,6.1,2.9,7.8s4.2,2.5,6.9,2.5,4.8-.7,7-2.2,4.2-3.6,5.9-6.3l6.7,5.1c-2.1,3.8-4.9,6.8-8.6,8.9Z"
     id="path4" />
  <path
     d="M626.9,283.4c-3.6,2.2-7.5,3.2-11.7,3.2s-6.4-.7-8.9-2.2c-2.5-1.5-4.3-3.6-5.3-6.5-1.9,2.8-4.6,5-7.9,6.5s-7.2,2.2-11.5,2.2c-6.3,0-11.4-1.6-15.5-4.9-4.1-3.3-6.1-8.3-6.1-15.1v-34h9.6v30.1c0,4.2.9,7.7,2.8,10.6,1.9,2.9,5.7,4.3,11.5,4.3s7-.7,9.6-2.2c2.6-1.4,4.8-3.6,6.6-6.6v-36.3h9.6v37.3c0,2.6.6,4.6,1.9,6,1.2,1.4,2.9,2,5,2s4.3-.7,6.5-2.2c2.2-1.5,4.2-3.6,6.1-6.3l6.3,5.1c-2.1,3.7-4.9,6.7-8.6,8.9Z"
     id="path5" />
  <path
     d="M733.2,283.4c-3.7,2.2-7.6,3.2-11.7,3.2s-8-1.2-10.9-3.7c-2.8-2.4-4.2-6-4.2-10.7v-17.5c0-4.6-1.2-8.1-3.8-10.6-2.5-2.5-5.7-3.7-9.5-3.7s-6.5.9-9.4,2.8c-2.9,1.8-5.2,4.4-6.8,7.8v34.8h-9.6v-30.6c0-4.8-1.3-8.5-3.8-11-2.6-2.5-5.8-3.8-9.8-3.8s-6.5.9-9.5,2.8c-3,1.8-5.2,4.4-6.8,7.6v35h-9.6v-53.3h9.2v8.2c2.3-2.9,5.2-5.1,8.7-6.7,3.4-1.6,7-2.4,10.8-2.4s8,1,11.3,2.9c3.3,1.9,5.8,4.7,7.3,8.4,2.3-3.7,5.3-6.5,9-8.4s7.5-2.9,11.5-2.9,7.2.8,10.2,2.4c3.1,1.6,5.6,3.9,7.4,7,1.8,3.1,2.8,6.7,2.8,11v17.9c0,2.6.6,4.6,1.8,6,1.2,1.4,2.9,2,5,2s4.4-.7,6.6-2.2,4.2-3.6,6-6.3l6.4,5.1c-2.1,3.7-4.9,6.7-8.6,8.9Z"
     id="path6" />
  <path
     d="M815.1,237c4.1,6.5,6.1,14.3,6.1,23.5s-1.4,13.5-4.2,18.1c-2.8,4.6-7.1,6.9-12.7,6.9s-5.3-.7-7.4-2c-2.1-1.3-3.5-3.2-4.4-5.7-2.2,2.6-4.8,4.6-7.9,6-3,1.4-6.2,2.1-9.6,2.1s-8-1-11.7-3c-3.7-2-6.6-4.9-8.9-8.8-2.2-3.8-3.3-8.3-3.3-13.4s1.1-9.5,3.3-13.3c2.2-3.8,5.2-6.6,8.9-8.6s7.6-3,11.8-3,6,.6,8.9,1.7c2.9,1.1,5.4,2.8,7.5,4.9l-.2-5.8h8.6v34c0,2.5.5,4.3,1.5,5.5,1,1.2,2.4,1.8,4,1.8,2.7,0,4.8-1.6,6.2-4.7,1.4-3.1,2.1-7.1,2.1-12,0-7.8-1.7-14.5-5-20-3.3-5.5-7.8-9.6-13.2-12.4-5.5-2.8-11.5-4.2-17.9-4.2s-12.5,1.4-18.2,4.2c-5.6,2.8-10.2,6.9-13.6,12.3s-5.1,11.7-5.1,19.1,1.6,13.4,4.8,18.9c3.2,5.5,7.6,9.8,13,12.9,5.4,3,11.4,4.5,17.9,4.5s12.7-1.5,18.5-4.4l2.5,7.3c-6.7,3.3-13.8,4.9-21.1,4.9s-15.1-1.9-21.8-5.6-12.1-9-16.1-15.7c-4-6.7-6-14.4-6-23s2.1-16.4,6.3-22.9,9.7-11.4,16.6-14.8c6.9-3.4,14.2-5.1,22-5.1s14.9,1.6,21.6,5c6.7,3.3,12,8.2,16.1,14.7ZM791.7,269.4v-17.4c-1.9-2.5-4.1-4.4-6.8-5.7-2.6-1.3-5.4-2-8.2-2s-5.5.7-7.9,2c-2.4,1.3-4.3,3.2-5.7,5.8-1.4,2.5-2.2,5.5-2.2,8.9s.7,6.3,2.2,8.8,3.4,4.3,5.8,5.6,5.1,1.9,7.9,1.9,5.7-.7,8.4-2.1c2.6-1.4,4.8-3.3,6.5-5.8Z"
     id="path7" />
  <path
     d="M893.4,283.4c-3.6,2.2-7.5,3.2-11.7,3.2s-6.4-.7-8.9-2.2c-2.5-1.5-4.3-3.6-5.3-6.5-1.9,2.8-4.6,5-7.9,6.5s-7.2,2.2-11.5,2.2c-6.3,0-11.4-1.6-15.5-4.9-4.1-3.3-6.1-8.3-6.1-15.1v-34h9.6v30.1c0,4.2.9,7.7,2.8,10.6,1.9,2.9,5.7,4.3,11.5,4.3s7-.7,9.6-2.2c2.6-1.4,4.8-3.6,6.6-6.6v-36.3h9.6v37.3c0,2.6.6,4.6,1.9,6,1.2,1.4,2.9,2,5,2s4.3-.7,6.5-2.2c2.2-1.5,4.2-3.6,6.1-6.3l6.3,5.1c-2.1,3.7-4.9,6.7-8.6,8.9Z"
     id="path8" />
  <path
     class="st5"
     d="M895,274c-2.7-4.2-4.1-9.2-4.1-15.1s1.1-10,3.3-14.1c2.2-4.1,5.3-7.3,9.3-9.7,3.9-2.3,8.3-3.5,13.2-3.5s10.2,1.5,14.1,4.4c3.9,2.9,6.2,6.8,6.9,11.6l-9.9,1.6c-.6-2.8-2-4.9-4.1-6.4-2.1-1.5-4.7-2.2-7.6-2.2s-5.4.7-7.7,2.1c-2.3,1.4-4.2,3.4-5.5,6-1.3,2.6-2,5.6-2,9.1s1,7.7,3.1,10.7c2,3,4.8,5.2,8.2,6.8,3.4,1.5,7.3,2.3,11.6,2.3s8.6-.8,13-2.4c4.4-1.6,8.3-3.8,11.7-6.7l5,6.9c-4.6,3.6-9.7,6.4-15.2,8.3-5.5,1.9-11,2.8-16.5,2.8s-11-1.1-15.7-3.2c-4.7-2.1-8.4-5.3-11.2-9.5Z"
     id="path9" />
  <g
     id="g38">
    <path
       d="M462.1,269.5c-1.9,2.7-3.9,4.8-6.1,6.3-2.2,1.5-4.4,2.2-6.6,2.2s-3.7-.7-4.9-2c-1.2-1.4-1.8-3.4-1.8-6v-37.4h-9.6l.2,7.1c-2.2-2.5-4.9-4.5-8.1-5.8-3.2-1.4-6.6-2.1-10.3-2.1s-8.7,1-12.6,3.2c-3.9,2.1-7.1,5.2-9.5,9.4s-3.6,9.1-3.6,15,1.1,10,3.2,14.2c2.1,4.2,5.1,7.4,8.9,9.8,3.8,2.3,8,3.5,12.8,3.5s7.6-.8,11.1-2.5c3.5-1.6,6.4-3.8,8.7-6.7.9,2.9,2.7,5.2,5.2,6.8,2.5,1.6,5.5,2.3,9,2.3s8-1.1,11.7-3.2,6.5-5.1,8.6-8.9l-6.3-5.1ZM433.1,249.7v18.6h0c-1.5,2.9-3.8,5.1-6.7,6.9s-6.2,2.6-9.7,2.6c-5.2,0-9.4-1.7-12.6-5.1s-4.8-7.9-4.8-13.5h0c0-3.9.8-7.2,2.3-10,1.5-2.8,3.6-4.9,6.2-6.3,2.6-1.4,5.5-2.1,8.6-2.1s6.4.8,9.4,2.3c3,1.6,5.4,3.8,7.3,6.6h0Z"
       id="path11" />
    <g
       id="g37">
      <path
         class="st3"
         d="M362.5,166.2h0c37.5,1.1,69.7,7.9,93.1,19.6,14.5-30.8,16.5-56.2,6-75.6-10.4-19.3-30.5-28.9-45.4-33.5-18.8-5.9-40.7-7.4-60.1-4.2-27.2,4.5-51.2,18.7-73.1,43.5,9.2,3.4,16.8,7,23,10,21,9.9,40,23.4,56.5,40.2Z"
         id="path12" />
      <path
         class="st3"
         d="M414.1,339.5c-34,11.9-69,15.9-84,17.6-13.5,1.5-27.4,3.1-41.3,3.8-19.1,11.3-36.7,20.4-52.3,27.2,6.3,33.3,18.2,53.7,38.6,66.2h0c33.9,20.8,85.8,15.2,118.2-12.9,25.9-22.4,36.7-58.1,32.1-106.2-3.7,1.5-7.5,3-11.4,4.3Z"
         id="path13" />
      <path
         class="st3"
         d="M433.1,249.7h0v18.6c-1.5,2.9-3.8,5.1-6.7,6.8-.7.4-1.5.8-2.2,1.1,1.2,4.2,2,7.7,2.6,10.4,2,8.9,4.6,20.9,6.6,34.6,27.1-13.3,44.3-30.6,51.2-51.6,5.3-16.2,5.3-30.6.1-43.1-4.5-10.6-12.9-19.9-25.1-27.5-9.2,17.6-20.5,33.8-29.8,46.8,1.3,1.1,2.4,2.4,3.4,3.8Z"
         id="path14" />
      <path
         class="st3"
         d="M127,248h0c4.4,14.1,12.2,28.2,23.1,42.1,18.5,23.5,39.5,37.6,40.4,38.2,9.8,6.5,20.3,11.7,31.3,15.5-.7-9.4-1.2-18.8-1.8-28.9v-.2c-1.9-32.2-4.5-76.3,8.4-120.7-11.9,3.6-23.4,7.7-34.2,12.1-29.3,12.1-51.3,25.9-67.1,41.9Z"
         id="path15" />
      <path
         class="st3"
         d="M190.5,197.3c13-5.4,26.9-10.2,41.3-14.3,6.7-19.3,16.2-37.2,28.1-53.3,2-2.8,4.3-5.8,6.9-9.1-12.7-3.7-24.5-5.5-36.2-5.5h0c-13.4,0-26.4,2.5-38.8,7.4-34,13.6-60.4,44.2-67.4,78-2.5,12.2-2.6,24.7-.1,37,16.4-15.3,38.1-28.4,66.2-40.1Z"
         id="path16" />
      <path
         class="st3"
         d="M234.9,378.5c10.5-4.7,22-10.4,34.2-17.2-13.3-.3-25.4-1.8-36.8-4.5.8,8.1,1.6,15.2,2.6,21.7Z"
         id="path17" />
      <path
         class="st3"
         d="M185.2,336.2c-.9-.6-23.2-15.6-42.6-40.2-10.2-12.9-17.8-26.4-22.8-40h0c-5,6.1-9.2,12.5-12.5,19.2-23.6,47.5-10.4,76.5-3.6,86.8,16.8,25.5,49.5,29.9,60.3,31.4,12,1.6,29.8,1.8,62-11.2-1.3-8.2-2.4-17.4-3.4-28.1-13.3-4.1-25.5-10-37.4-17.9Z"
         id="path18" />
      <path
         class="st3"
         d="M348.5,166.1c-14-12.9-29.7-23.5-46.6-31.5-6.9-3.3-15.5-7.3-25.4-10.9h0c-3.5,4.3-6.5,8.4-8.9,11.6-10.2,13.8-18.5,28.8-24.7,44.7,34.6-8.9,71.1-13.7,105.6-14Z"
         id="path19" />
      <path
         class="st3"
         d="M371.6,176.2c10.6,12.2,20.2,26.2,28.6,41.4,4.2,7.6,8.1,15.6,11.6,23.7,1.4-.4,3-.5,4.5-.5s3.2.2,4.8.6c9.3-13,20.8-29.4,30-47-20-10.1-47.5-16.4-79.6-18.2Z"
         id="path20" />
      <path
         class="st3"
         d="M307.1,350c7.4-.7,14.8-1.5,21.9-2.4,14.6-1.7,49-5.6,81.9-17.1,4.7-1.6,9.2-3.4,13.4-5.2-1.9-14.5-4.8-27.3-6.8-36.7-.5-2.3-1.4-6.1-2.8-11.1-3-.3-5.6-1.2-7.9-2.7-27.5,30.5-59.1,50.8-99.7,75.1Z"
         id="path21" />
      <path
         class="st3"
         d="M492.5,223.3c-5.3-12.6-15.3-23.4-29.6-32.1l-.4-.2.2-.4c16.1-33.8,18.2-62.1,6.3-84.2-19.6-36.4-73.6-48.8-114.4-42.1-30.5,5-56.9,21.2-80.8,49.5l-.2.2h-.3c-30.5-9.8-58.9-9.5-84.6.7-17.3,6.9-33.2,18.1-45.9,32.3-13.6,15.2-22.8,33.1-26.7,51.9-3.2,15.3-2.7,31,1.4,46.6v.3c0,0-.1.2-.1.2-7.2,8-13.2,16.6-17.7,25.7-7.3,14.6-10.7,27.5-12.3,35.7-4.5,23.4-1.5,43.4,9.2,59.5,18.9,28.7,54.5,33.5,66.2,35.1,12.7,1.7,31.7,2,65.1-11.2l.6-.2h0v.6c7,34.7,20.4,57.1,42.2,70.6,14.6,9,32.5,13.7,52,13.7,28.3,0,56.1-10,76.3-27.5,28.8-24.9,40.4-64.2,34.7-116.9v-.4s.3-.1.3-.1c31.1-14.5,50.8-34,58.7-58.1,6-18.2,5.9-34.6-.1-49ZM281.7,116c22.2-25.3,46.5-39.8,74.1-44.4,19.5-3.2,41.5-1.7,60.5,4.2,15.2,4.7,35.5,14.4,46,34,10.7,19.8,8.6,45.7-6.2,77l-.2.5h0,0l-.5-.2c-23.3-11.8-55.6-18.7-93.3-19.8h-.3c-16.5-16.9-35.5-30.4-56.4-40.3-6.3-3-14.2-6.7-23.6-10.2l-.7-.2.5-.5ZM275.9,122.8l.2-.3h.3c10.1,3.8,18.8,7.8,25.8,11.1,17.4,8.2,33.5,19.1,47.8,32.5l.9.9h-1.3c-35.1.2-72.3,5-107.5,14.2l-.9.2h0s0,0,0,0h0s.3-.9.3-.9c6.2-16.3,14.7-31.7,25.1-45.8,2.5-3.4,5.6-7.5,9.2-12ZM123.5,200.3c7-34.1,33.8-65,68-78.7,12.4-5,25.6-7.5,39.1-7.5s24.2,1.9,37.2,5.8l.7.2-.5.6c-2.8,3.5-5.2,6.8-7.3,9.6-12,16.1-21.4,34.1-28.1,53.3v.2c0,0-.3,0-.3,0-14.5,4.1-28.4,9-41.5,14.3-28.4,11.8-50.2,25-66.6,40.5l-.7.6h0s-.2-.9-.2-.9c-2.6-12.7-2.6-25.6,0-38.2ZM220.9,314.6v.2c.6,10.3,1.2,20,1.9,29.6v.8q0,0,0,0l-.7-.2c-11.3-3.8-22.1-9.1-32.2-15.8-.9-.6-22.1-14.8-40.6-38.4-11-14-18.9-28.4-23.3-42.7v-.3c0,0,.1-.2.1-.2,16-16.2,38.1-30.1,67.7-42.3,11.1-4.6,22.9-8.8,35.2-12.5l.9-.3-.3.9c-13.1,44.6-10.5,88.9-8.6,121.3ZM226.7,383c-23.9,9.7-40,12.1-51.7,12.1,0,0,0,0,0,0h0s0,0,0,0c-4.3,0-8-.3-11.2-.8-10.9-1.5-43.9-6-61-31.8-6.9-10.4-20.2-39.8,3.6-87.8,3.5-7,7.9-13.8,13.2-20.1l.6-.7.3.8c4.9,13.8,12.6,27.4,22.9,40.5,19.3,24.5,41.4,39.4,42.4,40,11.9,7.9,24.1,13.8,37.4,17.9h.3c0,0,0,.4,0,.4,1,11,2.1,20.4,3.5,28.8v.4c0,0-.3.2-.3.2ZM234.1,379.9h0s0-.6,0-.6c-1-6.9-1.9-14.4-2.7-23.1v-.7c0,0,.6.2.6.2,12,2.9,24.9,4.4,39.1,4.6h1.9s-1.6.9-1.6.9c-13.1,7.3-25.4,13.5-36.5,18.4l-.6.3ZM394.1,442.2c-19.5,16.9-45.9,25.7-71.3,25.7h0c-17.4,0-34.2-4.1-48.1-12.7-20.7-12.8-32.8-33.5-39.1-67.3v-.4c0,0,.3-.2.3-.2,15.7-6.8,33.4-16,52.6-27.3h.1c0,0,.1,0,.1,0,13.9-.7,27.8-2.3,41.3-3.8,14.9-1.7,49.9-5.7,83.8-17.5,4.1-1.4,8.2-3,12-4.6l.6-.3v.7c4.9,48.7-6,85-32.3,107.7ZM485.5,269.9c-7,21.4-24.6,39.1-52.3,52.5l-.6.3h0s0,0,0,0h0s0-.7,0-.7c-2-13.9-4.7-26.2-6.7-35.2-.6-2.7-1.4-6.2-2.6-10.3-2.1.7-4.2,1.1-6.5,1.1s-.6,0-1,0c1.4,4.8,2.3,8.6,2.8,10.8,2.1,9.5,5,22.4,6.9,37.1v.4s-.3.2-.3.2c-4.4,1.9-9,3.7-13.8,5.3-33,11.6-67.4,15.5-82.1,17.2-7.9.9-16,1.8-24.1,2.6l-2.1.2h0s0,0,0,0h0s1.8-1.1,1.8-1.1c41.4-24.8,73.4-45.1,101.3-76-.7-.5-1.3-1.1-1.9-1.7-1.2-1.2-2.1-2.6-2.9-4.2-29.8,33.4-64.5,54.1-114.8,84h-.1c0,0-.1,0-.1,0-3.9.2-7.7.2-11.3.2,0,0,0,0,0,0h0s0,0,0,0c-16.4,0-30.6-1.7-44-5.2h-.3c0,0,0-.4,0-.4-.8-10.6-1.5-21.9-2.1-32.9-2.1-35.4-4.6-79.5,9.8-123.9v-.3c0,0,.3,0,.3,0,39.4-10.8,80.9-16.1,119.9-15.3h.2v.2c22.2,23.3,36.7,49.6,45.7,70.6,1-1,2.2-1.9,3.5-2.6,1-.5,2-1,3.1-1.3-3.5-8.1-7.3-16-11.5-23.5-8.6-15.5-18.4-29.7-29.3-42.1l-.8-.9h1.9c32.7,1.9,60.7,8.3,81,18.7l.5.2-.2.5c-9.2,17.7-20.7,34.2-30.1,47.3,1.2.4,2.4.9,3.5,1.5,1.1.6,2.2,1.3,3.2,2.1,9.4-13.1,20.7-29.5,30-47.1l.2-.5.5.3c12.7,7.8,21.4,17.4,26,28.3,5.3,12.6,5.3,27.4-.1,43.8Z"
         id="path22" />
      <path
         class="st3"
         d="M239.1,190.9c-14.2,44.2-11.7,88-9.6,123.3.6,10.9,1.3,22.1,2.1,32.5h0c16.1,4.2,33.4,5.7,54.5,4.8,50.3-30,85-50.6,114.8-84.1-1-2.4-1.5-5.1-1.5-8.2h0c0-3.9.8-7.2,2.3-10,.6-1.1,1.2-2,2-2.9-9-21-23.3-47.3-45.4-70.6-38.8-.7-80,4.5-119.1,15.2Z"
         id="path23" />
      <path
         class="st0"
         d="M426.4,333.8l-.6.3c-3.8,1.6-7.9,3.1-12,4.6-33.8,11.8-68.8,15.8-83.8,17.5-13.5,1.5-27.5,3.1-41.3,3.8h-.2c-19.2,11.4-37,20.6-52.6,27.4l-.4.2v.4c6.4,33.8,18.5,54.5,39.2,67.3,13.9,8.5,30.8,12.7,48.1,12.7h0c25.4,0,51.8-8.8,71.3-25.7,26.3-22.7,37.2-59,32.4-107.7v-.7ZM393.4,441.4c-32.4,28.1-84.4,33.8-118.2,12.9h0c-20.4-12.5-32.3-33-38.6-66.2,15.6-6.7,33.2-15.9,52.3-27.2,13.9-.7,27.8-2.3,41.3-3.8,15-1.7,50-5.7,84-17.6,3.9-1.4,7.8-2.8,11.4-4.3,4.6,48.1-6.2,83.8-32.1,106.2Z"
         id="path24" />
      <polygon
         class="st0"
         points="302.8 351.4 302.9 351.4 302.8 351.4 302.8 351.4"
         id="polygon24" />
      <polygon
         class="st0"
         points="274.9 352.8 274.9 352.8 274.9 352.8 274.9 352.8"
         id="polygon25" />
      <polygon
         class="st0"
         points="432.6 322.7 432.6 322.7 432.6 322.7 432.6 322.7"
         id="polygon26" />
      <path
         class="st0"
         d="M459.6,197.9l-.5-.3-.2.5c-9.2,17.7-20.6,34-30,47.1.3.2.5.4.8.7,9.3-13,20.6-29.3,29.8-46.8,12.2,7.7,20.7,16.9,25.1,27.5,5.2,12.4,5.2,26.9-.1,43.1-6.9,21-24.1,38.3-51.2,51.6-2-13.7-4.6-25.8-6.6-34.6-.6-2.7-1.4-6.2-2.6-10.4-.3.1-.6.2-.9.4,1.1,4.1,2,7.6,2.6,10.3,2,9,4.7,21.3,6.7,35.2v.7c0,0,.7-.3.7-.3,27.7-13.4,45.2-31.1,52.3-52.5,5.4-16.4,5.4-31.1.1-43.8-4.6-10.9-13.3-20.4-26-28.3Z"
         id="path26" />
      <path
         class="st0"
         d="M272.9,360.3h-1.9c-14.3-.2-27.1-1.8-39.1-4.7l-.7-.2v.7c.9,8.7,1.8,16.2,2.8,23.1v.7c0,0,.1,0,.1,0l.6-.3c11.2-4.9,23.5-11.1,36.5-18.4l1.6-.9ZM234.9,378.5c-1-6.5-1.8-13.6-2.6-21.7,11.4,2.7,23.5,4.1,36.8,4.5-12.2,6.8-23.7,12.6-34.2,17.2Z"
         id="path27" />
      <path
         class="st0"
         d="M286.1,351.5c-21.1.9-38.5-.6-54.5-4.8h0c-.8-10.5-1.5-21.7-2.1-32.5-2-35.3-4.6-79.1,9.6-123.3,39.2-10.7,80.3-15.9,119.1-15.2,22.1,23.3,36.4,49.6,45.4,70.6.2-.3.5-.5.7-.8-9-21.1-23.5-47.4-45.6-70.6v-.2h-.4c-39-.7-80.5,4.6-119.9,15.3h-.3c0,0,0,.3,0,.3-14.4,44.4-11.8,88.5-9.8,123.9.6,11,1.3,22.3,2.1,32.9v.4s.4,0,.4,0c13.3,3.5,27.5,5.2,44,5.2,3.7,0,7.4,0,11.3-.2h.2c50.3-30,85-50.7,114.8-84.1-.2-.3-.3-.7-.4-1-29.8,33.5-64.4,54.1-114.8,84.1Z"
         id="path28" />
      <path
         class="st0"
         d="M493.5,222.9c-5.3-12.7-15.3-23.6-29.6-32.4,16-33.9,18.1-62.4,6-84.7-19.8-36.8-74.3-49.4-115.4-42.6-30.6,5.1-57.2,21.3-81.2,49.6-30.6-9.7-59.2-9.4-84.9.9-17.5,7-33.5,18.2-46.3,32.5-13.7,15.3-23,33.4-26.9,52.4-3.2,15.4-2.7,31.1,1.4,46.8-7.2,8-13.2,16.6-17.7,25.7-7.3,14.8-10.8,27.7-12.4,35.9-4.6,23.6-1.5,43.9,9.3,60.3,19.2,29.1,55.1,34,66.9,35.6,12.8,1.7,31.7,2,65-11.1,7,34.7,20.5,57.1,42.5,70.7,14.7,9.1,32.9,13.9,52.5,13.9h0c28.6,0,56.6-10.1,77-27.7,29-25.1,40.8-64.6,35-117.4,31.1-14.6,51-34.3,58.9-58.6,6-18.4,6-35.1-.1-49.7ZM492.6,272.3c-7.9,24.1-27.7,43.7-58.7,58.1h-.3c0,.1,0,.5,0,.5,5.8,52.7-5.9,92-34.7,116.9-20.2,17.5-48,27.5-76.3,27.5s-37.4-4.7-52-13.7c-21.9-13.5-35.2-35.9-42.1-70.6v-.6h-.1l-.6.2c-33.4,13.2-52.3,13-65.1,11.2-11.7-1.6-47.3-6.4-66.2-35.1-10.6-16.1-13.7-36.2-9.2-59.5,1.6-8.2,5-21,12.3-35.7,4.5-9.1,10.5-17.7,17.7-25.7l.2-.2v-.3c-4.2-15.6-4.6-31.3-1.5-46.6,3.9-18.8,13.1-36.7,26.7-51.9,12.7-14.2,28.6-25.4,45.9-32.3,25.6-10.2,54.1-10.5,84.6-.8h.3c0,.1.2-.1.2-.1,23.9-28.3,50.4-44.4,80.8-49.5,40.8-6.7,94.8,5.7,114.4,42.1,11.9,22.1,9.8,50.5-6.3,84.2l-.2.4.4.2c14.4,8.7,24.3,19.5,29.6,32.1,6,14.4,6.1,30.9.1,49Z"
         id="path29" />
      <path
         class="st0"
         d="M417.5,288.7c2.1,9.3,4.9,22.1,6.8,36.7-4.2,1.8-8.8,3.5-13.4,5.2-32.9,11.5-67.3,15.4-81.9,17.1-7.2.8-14.5,1.7-21.9,2.4,40.6-24.3,72.2-44.6,99.7-75.1-.3-.2-.5-.4-.8-.6-27.9,30.9-59.9,51.2-101.3,76l-1.8,1.1,2.1-.2c8.1-.7,16.2-1.7,24.1-2.6,14.7-1.7,49.1-5.6,82.1-17.2,4.8-1.7,9.5-3.5,13.8-5.3l.3-.2v-.4c-2-14.7-4.8-27.7-6.9-37.1-.5-2.2-1.4-6-2.8-10.8-.4,0-.7,0-1.1,0,1.4,5,2.3,8.9,2.8,11.1Z"
         id="path30" />
      <path
         class="st0"
         d="M400.3,217.6c-8.4-15.2-18-29.2-28.6-41.4,32.2,1.8,59.7,8.1,79.6,18.2-9.2,17.6-20.7,34-30,47,.3,0,.7.2,1,.3,9.4-13.1,20.9-29.6,30.1-47.3l.2-.5-.5-.2c-20.2-10.3-48.2-16.7-81-18.5h-1.9c0-.1.8.8.8.8,10.9,12.4,20.7,26.6,29.3,42.1,4.2,7.6,8,15.4,11.5,23.5.3-.1.7-.2,1-.3-3.5-8.2-7.4-16.1-11.6-23.7Z"
         id="path31" />
      <path
         class="st2"
         d="M123.7,239.4h0s.7-.6.7-.6c16.4-15.5,38.1-28.7,66.6-40.5,13-5.4,27-10.2,41.5-14.3h.2c0,0,0-.3,0-.3,6.7-19.3,16.1-37.2,28.1-53.3,2.1-2.9,4.5-6.1,7.3-9.6l.5-.6-.7-.2c-13-3.9-25.2-5.8-37.2-5.8s-26.7,2.5-39.1,7.5c-34.3,13.7-61,44.6-68,78.7-2.6,12.7-2.6,25.5,0,38.2l.2.9ZM124.5,200.5c7-33.8,33.4-64.4,67.4-78,12.3-4.9,25.4-7.4,38.8-7.4h0c11.7,0,23.6,1.8,36.2,5.5-2.6,3.3-4.9,6.4-6.9,9.1-11.9,16.1-21.4,34-28.1,53.3-14.5,4.1-28.3,8.9-41.3,14.3-28.1,11.7-49.8,24.8-66.2,40.1-2.4-12.3-2.4-24.7.1-37Z"
         id="path32" />
      <path
         class="st0"
         d="M241.6,180.6l-.3.9.9-.2c35.2-9.1,72.4-14,107.5-14.2h1.3l-.9-.9c-14.4-13.4-30.4-24.3-47.8-32.5-7-3.3-15.7-7.4-25.8-11h-.3c0-.1-.2.2-.2.2-3.6,4.4-6.7,8.6-9.2,12-10.4,14-18.9,29.5-25.1,45.8ZM276.5,123.8h0c9.9,3.6,18.5,7.6,25.4,10.9,16.9,8,32.5,18.5,46.6,31.5-34.5.3-71,5.1-105.6,14,6.2-15.9,14.5-30.9,24.7-44.7,2.4-3.2,5.4-7.3,8.9-11.6Z"
         id="path33" />
      <polygon
         class="st0"
         points="241.3 181.5 241.3 181.5 241.3 181.5 241.3 181.5"
         id="polygon33" />
      <path
         class="st0"
         d="M229.8,192.5l-.9.3c-12.3,3.7-24.1,7.9-35.2,12.5-29.6,12.2-51.7,26.1-67.7,42.3l-.2.2v.3c4.5,14.3,12.4,28.7,23.4,42.7,18.6,23.6,39.7,37.8,40.6,38.4,10.1,6.7,20.9,12,32.2,15.8l.7.2h0s0-.8,0-.8c-.7-9.6-1.3-19.3-1.9-29.6v-.2c-1.9-32.4-4.5-76.7,8.6-121.3l.3-.9ZM219.9,314.7v.2c.6,10,1.1,19.5,1.8,28.9-11-3.7-21.5-8.9-31.3-15.5-.9-.6-21.9-14.7-40.4-38.2-10.9-13.8-18.7-28-23.1-42.1h0c15.8-16.1,37.8-29.8,67.1-41.9,10.8-4.5,22.3-8.5,34.2-12.1-12.8,44.5-10.3,88.5-8.4,120.7Z"
         id="path34" />
      <path
         class="st0"
         d="M305.5,126.9c20.9,9.9,39.9,23.4,56.4,40.2h.1c0,.1.2.1.2.1,37.7,1.1,70,7.9,93.3,19.8l.5.2.2-.5c14.8-31.3,16.9-57.2,6.2-77-10.5-19.6-30.8-29.3-46-34-19-5.9-41-7.4-60.5-4.2-27.7,4.6-51.9,19.1-74.1,44.4l-.5.5.7.2c9.4,3.5,17.3,7.2,23.6,10.2ZM356,72.5c19.3-3.2,41.2-1.7,60.1,4.2,15,4.7,35,14.3,45.4,33.5,10.5,19.4,8.5,44.8-6,75.6-23.4-11.7-55.5-18.5-93.1-19.6h0c-16.6-16.8-35.6-30.3-56.5-40.2-6.2-2.9-13.8-6.5-23-10,21.9-24.8,45.8-39,73.1-43.5Z"
         id="path35" />
      <polygon
         class="st0"
         points="175.1 395.2 175 395.2 175 395.2 175.1 395.2"
         id="polygon35" />
      <polygon
         class="st0"
         points="456 187.2 456 187.2 456 187.2 456 187.2"
         id="polygon36" />
      <path
         class="st0"
         d="M223.6,353.7v-.3s-.3,0-.3,0c-13.3-4.1-25.6-9.9-37.4-17.9-.9-.6-23.1-15.5-42.4-40-10.3-13.1-18-26.8-22.9-40.5l-.3-.8-.6.7c-5.3,6.3-9.7,13.1-13.2,20.1-23.8,48-10.4,77.4-3.6,87.8,17,25.9,50.1,30.3,61,31.8,3.3.4,7,.8,11.2.8,11.7,0,27.8-2.5,51.7-12.1l.4-.2v-.4c-1.4-8.4-2.6-17.8-3.5-28.8ZM163.9,393.4c-10.8-1.5-43.5-5.9-60.3-31.4-6.8-10.3-19.9-39.2,3.6-86.8,3.3-6.7,7.5-13.2,12.5-19.2h0c5,13.6,12.6,27,22.8,40,19.4,24.6,41.7,39.6,42.6,40.2,11.9,7.9,24.1,13.8,37.4,17.9.9,10.7,2,19.9,3.4,28.1-32.2,13-50.1,12.8-62,11.2Z"
         id="path36" />
    </g>
  </g>
</svg>
